<mxfile host="app.diagrams.net" agent="Mozilla/5.0 (Windows NT 10.0; Win64; x64; rv:136.0) Gecko/20100101 Firefox/136.0" version="26.1.1" pages="3">
  <diagram name="Page-1" id="b5b7bab2-c9e2-2cf4-8b2a-24fd1a2a6d21">
    <mxGraphModel dx="1020" dy="1219" grid="1" gridSize="10" guides="1" tooltips="1" connect="1" arrows="1" fold="1" page="1" pageScale="1" pageWidth="827" pageHeight="1169" background="none" math="0" shadow="0">
      <root>
        <mxCell id="0" />
        <mxCell id="1" parent="0" />
        <mxCell id="eLgXUMtrTcXdyJbQ9QIN-6" value="Хранилище данных" style="shape=folder;fontStyle=1;spacingTop=10;tabWidth=40;tabHeight=14;tabPosition=left;html=1;whiteSpace=wrap;verticalAlign=top;spacing=8;" vertex="1" parent="1">
          <mxGeometry x="320" y="50" width="270" height="430" as="geometry" />
        </mxCell>
        <mxCell id="eLgXUMtrTcXdyJbQ9QIN-1" value="БД &quot;Галерея&quot;" style="shape=folder;fontStyle=1;spacingTop=10;tabWidth=40;tabHeight=14;tabPosition=left;html=1;whiteSpace=wrap;" vertex="1" parent="1">
          <mxGeometry x="410" y="110" width="90" height="50" as="geometry" />
        </mxCell>
        <mxCell id="eLgXUMtrTcXdyJbQ9QIN-2" value="&lt;div&gt;Администрирование&lt;/div&gt;" style="shape=folder;fontStyle=1;spacingTop=10;tabWidth=40;tabHeight=14;tabPosition=left;html=1;whiteSpace=wrap;align=center;verticalAlign=top;spacing=8;" vertex="1" parent="1">
          <mxGeometry x="40" y="20" width="230" height="190" as="geometry" />
        </mxCell>
        <mxCell id="eLgXUMtrTcXdyJbQ9QIN-4" value="Управление доступом" style="shape=folder;fontStyle=1;spacingTop=10;tabWidth=40;tabHeight=14;tabPosition=left;html=1;whiteSpace=wrap;" vertex="1" parent="1">
          <mxGeometry x="85" y="70" width="140" height="50" as="geometry" />
        </mxCell>
        <mxCell id="eLgXUMtrTcXdyJbQ9QIN-5" value="Управление выставками" style="shape=folder;fontStyle=1;spacingTop=10;tabWidth=40;tabHeight=14;tabPosition=left;html=1;whiteSpace=wrap;" vertex="1" parent="1">
          <mxGeometry x="75" y="130" width="160" height="50" as="geometry" />
        </mxCell>
        <mxCell id="eLgXUMtrTcXdyJbQ9QIN-8" value="Картины" style="shape=folder;fontStyle=1;spacingTop=10;tabWidth=40;tabHeight=14;tabPosition=left;html=1;whiteSpace=wrap;" vertex="1" parent="1">
          <mxGeometry x="490" y="210" width="70" height="50" as="geometry" />
        </mxCell>
        <mxCell id="eLgXUMtrTcXdyJbQ9QIN-9" value="Выставки" style="shape=folder;fontStyle=1;spacingTop=10;tabWidth=40;tabHeight=14;tabPosition=left;html=1;whiteSpace=wrap;" vertex="1" parent="1">
          <mxGeometry x="360" y="210" width="70" height="50" as="geometry" />
        </mxCell>
        <mxCell id="eLgXUMtrTcXdyJbQ9QIN-13" value="Use" style="endArrow=open;endSize=12;dashed=1;html=1;rounded=0;fontSize=12;curved=1;" edge="1" parent="1" source="eLgXUMtrTcXdyJbQ9QIN-1" target="eLgXUMtrTcXdyJbQ9QIN-8">
          <mxGeometry x="0.0537" y="11" width="160" relative="1" as="geometry">
            <mxPoint x="460" y="140" as="sourcePoint" />
            <mxPoint x="620" y="140" as="targetPoint" />
            <mxPoint as="offset" />
          </mxGeometry>
        </mxCell>
        <mxCell id="eLgXUMtrTcXdyJbQ9QIN-14" value="Use" style="endArrow=open;endSize=12;dashed=1;html=1;rounded=0;fontSize=12;curved=1;" edge="1" parent="1" source="eLgXUMtrTcXdyJbQ9QIN-1" target="eLgXUMtrTcXdyJbQ9QIN-9">
          <mxGeometry x="0.1176" y="-15" width="160" relative="1" as="geometry">
            <mxPoint x="460" y="320" as="sourcePoint" />
            <mxPoint x="620" y="320" as="targetPoint" />
            <mxPoint y="-1" as="offset" />
          </mxGeometry>
        </mxCell>
        <mxCell id="eLgXUMtrTcXdyJbQ9QIN-15" value="" style="html=1;verticalAlign=bottom;labelBackgroundColor=none;endArrow=open;endFill=0;dashed=1;rounded=0;fontSize=12;startSize=8;endSize=8;curved=1;" edge="1" parent="1" source="eLgXUMtrTcXdyJbQ9QIN-2" target="eLgXUMtrTcXdyJbQ9QIN-1">
          <mxGeometry width="160" relative="1" as="geometry">
            <mxPoint x="235" y="140" as="sourcePoint" />
            <mxPoint x="395" y="140" as="targetPoint" />
          </mxGeometry>
        </mxCell>
        <mxCell id="eLgXUMtrTcXdyJbQ9QIN-16" value="Create" style="endArrow=open;endSize=12;dashed=1;html=1;rounded=0;fontSize=12;curved=1;" edge="1" parent="1" source="eLgXUMtrTcXdyJbQ9QIN-5" target="eLgXUMtrTcXdyJbQ9QIN-9">
          <mxGeometry x="-0.0086" y="15" width="160" relative="1" as="geometry">
            <mxPoint x="220" y="210" as="sourcePoint" />
            <mxPoint x="380" y="210" as="targetPoint" />
            <mxPoint as="offset" />
          </mxGeometry>
        </mxCell>
        <mxCell id="eLgXUMtrTcXdyJbQ9QIN-17" value="Билеты" style="shape=folder;fontStyle=1;spacingTop=10;tabWidth=40;tabHeight=14;tabPosition=left;html=1;whiteSpace=wrap;" vertex="1" parent="1">
          <mxGeometry x="420" y="310" width="70" height="50" as="geometry" />
        </mxCell>
        <mxCell id="eLgXUMtrTcXdyJbQ9QIN-19" value="Use" style="endArrow=open;endSize=12;dashed=1;html=1;rounded=0;fontSize=12;curved=1;" edge="1" parent="1" source="eLgXUMtrTcXdyJbQ9QIN-1" target="eLgXUMtrTcXdyJbQ9QIN-17">
          <mxGeometry x="-0.2" y="15" width="160" relative="1" as="geometry">
            <mxPoint x="280" y="260" as="sourcePoint" />
            <mxPoint x="440" y="260" as="targetPoint" />
            <mxPoint as="offset" />
          </mxGeometry>
        </mxCell>
        <mxCell id="eLgXUMtrTcXdyJbQ9QIN-20" value="Мониторинг" style="shape=folder;fontStyle=1;spacingTop=10;tabWidth=40;tabHeight=14;tabPosition=left;html=1;whiteSpace=wrap;verticalAlign=top;spacing=8;" vertex="1" parent="1">
          <mxGeometry x="40" y="230" width="230" height="300" as="geometry" />
        </mxCell>
        <mxCell id="eLgXUMtrTcXdyJbQ9QIN-21" value="Просмотр выставок" style="shape=folder;fontStyle=1;spacingTop=10;tabWidth=40;tabHeight=14;tabPosition=left;html=1;whiteSpace=wrap;" vertex="1" parent="1">
          <mxGeometry x="90" y="270" width="130" height="50" as="geometry" />
        </mxCell>
        <mxCell id="eLgXUMtrTcXdyJbQ9QIN-22" value="Бронирование билетов" style="shape=folder;fontStyle=1;spacingTop=10;tabWidth=40;tabHeight=14;tabPosition=left;html=1;whiteSpace=wrap;" vertex="1" parent="1">
          <mxGeometry x="80" y="330" width="150" height="50" as="geometry" />
        </mxCell>
        <mxCell id="eLgXUMtrTcXdyJbQ9QIN-23" value="Use" style="endArrow=open;endSize=12;dashed=1;html=1;rounded=0;fontSize=12;curved=1;" edge="1" parent="1" source="eLgXUMtrTcXdyJbQ9QIN-21" target="eLgXUMtrTcXdyJbQ9QIN-9">
          <mxGeometry x="0.0675" y="13" width="160" relative="1" as="geometry">
            <mxPoint x="230" y="304.5" as="sourcePoint" />
            <mxPoint x="390" y="304.5" as="targetPoint" />
            <mxPoint as="offset" />
          </mxGeometry>
        </mxCell>
        <mxCell id="eLgXUMtrTcXdyJbQ9QIN-24" value="Use" style="endArrow=open;endSize=12;dashed=1;html=1;rounded=0;fontSize=12;curved=1;" edge="1" parent="1" source="eLgXUMtrTcXdyJbQ9QIN-22" target="eLgXUMtrTcXdyJbQ9QIN-17">
          <mxGeometry x="-0.1252" y="19" width="160" relative="1" as="geometry">
            <mxPoint x="270" y="360" as="sourcePoint" />
            <mxPoint x="430" y="360" as="targetPoint" />
            <mxPoint as="offset" />
          </mxGeometry>
        </mxCell>
        <mxCell id="eLgXUMtrTcXdyJbQ9QIN-25" value="Просмотр сведений" style="shape=folder;fontStyle=1;spacingTop=10;tabWidth=40;tabHeight=14;tabPosition=left;html=1;whiteSpace=wrap;" vertex="1" parent="1">
          <mxGeometry x="90" y="450" width="130" height="50" as="geometry" />
        </mxCell>
        <mxCell id="eLgXUMtrTcXdyJbQ9QIN-26" value="Use" style="endArrow=open;endSize=12;dashed=1;html=1;rounded=0;fontSize=12;curved=1;" edge="1" parent="1" source="eLgXUMtrTcXdyJbQ9QIN-25" target="eLgXUMtrTcXdyJbQ9QIN-8">
          <mxGeometry x="0.3904" y="43" width="160" relative="1" as="geometry">
            <mxPoint x="279.997619047619" y="495.14" as="sourcePoint" />
            <mxPoint x="537" y="260" as="targetPoint" />
            <Array as="points">
              <mxPoint x="522" y="510" />
            </Array>
            <mxPoint as="offset" />
          </mxGeometry>
        </mxCell>
        <mxCell id="eLgXUMtrTcXdyJbQ9QIN-27" value="Просмотр статистики продаж" style="shape=folder;fontStyle=1;spacingTop=10;tabWidth=40;tabHeight=14;tabPosition=left;html=1;whiteSpace=wrap;" vertex="1" parent="1">
          <mxGeometry x="65" y="390" width="180" height="50" as="geometry" />
        </mxCell>
        <mxCell id="eLgXUMtrTcXdyJbQ9QIN-28" value="Use" style="endArrow=open;endSize=12;dashed=1;html=1;rounded=0;fontSize=12;curved=1;" edge="1" parent="1" source="eLgXUMtrTcXdyJbQ9QIN-27" target="eLgXUMtrTcXdyJbQ9QIN-17">
          <mxGeometry width="160" relative="1" as="geometry">
            <mxPoint x="300" y="410" as="sourcePoint" />
            <mxPoint x="460" y="410" as="targetPoint" />
          </mxGeometry>
        </mxCell>
      </root>
    </mxGraphModel>
  </diagram>
  <diagram id="rkDj7YFEL5zKvat_WGcd" name="Страница — 2">
    <mxGraphModel dx="2353" dy="2057" grid="1" gridSize="10" guides="1" tooltips="1" connect="1" arrows="1" fold="1" page="1" pageScale="1" pageWidth="827" pageHeight="1169" math="0" shadow="0">
      <root>
        <mxCell id="0" />
        <mxCell id="1" parent="0" />
        <mxCell id="xKHD5wUTyXtt5sotV_iL-10" value="" style="edgeStyle=none;curved=1;rounded=0;orthogonalLoop=1;jettySize=auto;html=1;fontSize=12;startSize=8;endSize=8;" edge="1" parent="1" source="xKHD5wUTyXtt5sotV_iL-4" target="xKHD5wUTyXtt5sotV_iL-8">
          <mxGeometry relative="1" as="geometry" />
        </mxCell>
        <mxCell id="xKHD5wUTyXtt5sotV_iL-22" value="" style="edgeStyle=none;curved=1;rounded=0;orthogonalLoop=1;jettySize=auto;html=1;fontSize=12;startSize=8;endSize=8;" edge="1" parent="1" source="xKHD5wUTyXtt5sotV_iL-4" target="xKHD5wUTyXtt5sotV_iL-16">
          <mxGeometry relative="1" as="geometry" />
        </mxCell>
        <mxCell id="xKHD5wUTyXtt5sotV_iL-25" style="edgeStyle=none;curved=1;rounded=0;orthogonalLoop=1;jettySize=auto;html=1;fontSize=12;startSize=8;endSize=8;" edge="1" parent="1" source="xKHD5wUTyXtt5sotV_iL-4" target="xKHD5wUTyXtt5sotV_iL-20">
          <mxGeometry relative="1" as="geometry" />
        </mxCell>
        <mxCell id="xKHD5wUTyXtt5sotV_iL-4" value="Администратор" style="shape=umlActor;verticalLabelPosition=bottom;verticalAlign=top;html=1;" vertex="1" parent="1">
          <mxGeometry x="-800" y="-1090" width="30" height="60" as="geometry" />
        </mxCell>
        <mxCell id="xKHD5wUTyXtt5sotV_iL-8" value="Добавить менеджера" style="ellipse;whiteSpace=wrap;html=1;" vertex="1" parent="1">
          <mxGeometry x="-680" y="-1070" width="100" height="55" as="geometry" />
        </mxCell>
        <mxCell id="xKHD5wUTyXtt5sotV_iL-14" value="Назначить роль менеджера" style="ellipse;whiteSpace=wrap;html=1;" vertex="1" parent="1">
          <mxGeometry x="-690" y="-1160" width="110" height="60" as="geometry" />
        </mxCell>
        <mxCell id="xKHD5wUTyXtt5sotV_iL-15" value="&amp;lt;&amp;lt;include&amp;gt;&amp;gt;" style="html=1;verticalAlign=bottom;labelBackgroundColor=none;endArrow=open;endFill=0;dashed=1;rounded=0;fontSize=12;startSize=8;endSize=8;curved=1;" edge="1" parent="1" source="xKHD5wUTyXtt5sotV_iL-8" target="xKHD5wUTyXtt5sotV_iL-14">
          <mxGeometry x="-0.2085" y="28" width="160" relative="1" as="geometry">
            <mxPoint x="-600" y="-1030" as="sourcePoint" />
            <mxPoint x="-440" y="-1030" as="targetPoint" />
            <mxPoint as="offset" />
          </mxGeometry>
        </mxCell>
        <mxCell id="xKHD5wUTyXtt5sotV_iL-16" value="Удалить менеджера" style="ellipse;whiteSpace=wrap;html=1;" vertex="1" parent="1">
          <mxGeometry x="-820" y="-1160" width="110" height="50" as="geometry" />
        </mxCell>
        <mxCell id="xKHD5wUTyXtt5sotV_iL-20" value="Управление правами доступа" style="ellipse;whiteSpace=wrap;html=1;" vertex="1" parent="1">
          <mxGeometry x="-790" y="-990" width="130" height="70" as="geometry" />
        </mxCell>
        <mxCell id="xKHD5wUTyXtt5sotV_iL-26" value="&amp;lt;&amp;lt;extend&amp;gt;&amp;gt;" style="html=1;verticalAlign=bottom;labelBackgroundColor=none;endArrow=open;endFill=0;dashed=1;rounded=0;fontSize=12;startSize=8;endSize=8;curved=1;" edge="1" parent="1" source="xKHD5wUTyXtt5sotV_iL-8" target="xKHD5wUTyXtt5sotV_iL-20">
          <mxGeometry width="160" relative="1" as="geometry">
            <mxPoint x="-500" y="-1050" as="sourcePoint" />
            <mxPoint x="-340" y="-1050" as="targetPoint" />
          </mxGeometry>
        </mxCell>
        <mxCell id="xKHD5wUTyXtt5sotV_iL-30" value="" style="edgeStyle=none;curved=1;rounded=0;orthogonalLoop=1;jettySize=auto;html=1;fontSize=12;startSize=8;endSize=8;" edge="1" parent="1" source="xKHD5wUTyXtt5sotV_iL-27" target="xKHD5wUTyXtt5sotV_iL-29">
          <mxGeometry relative="1" as="geometry" />
        </mxCell>
        <mxCell id="xKHD5wUTyXtt5sotV_iL-38" style="edgeStyle=none;curved=1;rounded=0;orthogonalLoop=1;jettySize=auto;html=1;fontSize=12;startSize=8;endSize=8;" edge="1" parent="1" source="xKHD5wUTyXtt5sotV_iL-27" target="xKHD5wUTyXtt5sotV_iL-37">
          <mxGeometry relative="1" as="geometry">
            <Array as="points" />
          </mxGeometry>
        </mxCell>
        <mxCell id="xKHD5wUTyXtt5sotV_iL-43" value="" style="edgeStyle=none;curved=1;rounded=0;orthogonalLoop=1;jettySize=auto;html=1;fontSize=12;startSize=8;endSize=8;" edge="1" parent="1" source="xKHD5wUTyXtt5sotV_iL-27" target="xKHD5wUTyXtt5sotV_iL-40">
          <mxGeometry relative="1" as="geometry" />
        </mxCell>
        <mxCell id="xKHD5wUTyXtt5sotV_iL-58" value="" style="edgeStyle=none;curved=1;rounded=0;orthogonalLoop=1;jettySize=auto;html=1;fontSize=12;startSize=8;endSize=8;" edge="1" parent="1" source="xKHD5wUTyXtt5sotV_iL-27" target="xKHD5wUTyXtt5sotV_iL-47">
          <mxGeometry relative="1" as="geometry" />
        </mxCell>
        <mxCell id="xKHD5wUTyXtt5sotV_iL-59" style="edgeStyle=none;curved=1;rounded=0;orthogonalLoop=1;jettySize=auto;html=1;fontSize=12;startSize=8;endSize=8;" edge="1" parent="1" source="xKHD5wUTyXtt5sotV_iL-27" target="xKHD5wUTyXtt5sotV_iL-52">
          <mxGeometry relative="1" as="geometry">
            <Array as="points" />
          </mxGeometry>
        </mxCell>
        <mxCell id="xKHD5wUTyXtt5sotV_iL-60" style="edgeStyle=none;curved=1;rounded=0;orthogonalLoop=1;jettySize=auto;html=1;fontSize=12;startSize=8;endSize=8;" edge="1" parent="1" source="xKHD5wUTyXtt5sotV_iL-27" target="xKHD5wUTyXtt5sotV_iL-53">
          <mxGeometry relative="1" as="geometry">
            <Array as="points">
              <mxPoint x="-260" y="-830" />
            </Array>
          </mxGeometry>
        </mxCell>
        <mxCell id="xKHD5wUTyXtt5sotV_iL-27" value="Менеджер" style="shape=umlActor;verticalLabelPosition=bottom;verticalAlign=top;html=1;" vertex="1" parent="1">
          <mxGeometry x="-110" y="-960" width="30" height="60" as="geometry" />
        </mxCell>
        <mxCell id="xKHD5wUTyXtt5sotV_iL-29" value="Добавить картину" style="ellipse;whiteSpace=wrap;html=1;" vertex="1" parent="1">
          <mxGeometry x="-300" y="-1150" width="100" height="50" as="geometry" />
        </mxCell>
        <mxCell id="xKHD5wUTyXtt5sotV_iL-31" value="Добавить изображение" style="ellipse;whiteSpace=wrap;html=1;" vertex="1" parent="1">
          <mxGeometry x="-520" y="-1169" width="90" height="50" as="geometry" />
        </mxCell>
        <mxCell id="xKHD5wUTyXtt5sotV_iL-33" value="Добавить описание" style="ellipse;whiteSpace=wrap;html=1;" vertex="1" parent="1">
          <mxGeometry x="-560" y="-1105" width="93.5" height="60" as="geometry" />
        </mxCell>
        <mxCell id="xKHD5wUTyXtt5sotV_iL-34" value="&amp;lt;&amp;lt;include&amp;gt;&amp;gt;" style="html=1;verticalAlign=bottom;labelBackgroundColor=none;endArrow=open;endFill=0;dashed=1;rounded=0;fontSize=12;startSize=8;endSize=8;curved=1;" edge="1" parent="1" source="xKHD5wUTyXtt5sotV_iL-29" target="xKHD5wUTyXtt5sotV_iL-31">
          <mxGeometry width="160" relative="1" as="geometry">
            <mxPoint x="-423" y="-1090" as="sourcePoint" />
            <mxPoint x="-263" y="-1090" as="targetPoint" />
          </mxGeometry>
        </mxCell>
        <mxCell id="xKHD5wUTyXtt5sotV_iL-35" value="&amp;lt;&amp;lt;include&amp;gt;&amp;gt;" style="html=1;verticalAlign=bottom;labelBackgroundColor=none;endArrow=open;endFill=0;dashed=1;rounded=0;fontSize=12;startSize=8;endSize=8;curved=1;" edge="1" parent="1" source="xKHD5wUTyXtt5sotV_iL-29" target="xKHD5wUTyXtt5sotV_iL-33">
          <mxGeometry width="160" relative="1" as="geometry">
            <mxPoint x="-383" y="-935" as="sourcePoint" />
            <mxPoint x="-317.23845277161445" y="-974.4279353756083" as="targetPoint" />
          </mxGeometry>
        </mxCell>
        <mxCell id="xKHD5wUTyXtt5sotV_iL-37" value="&lt;div&gt;Удаление картины&lt;/div&gt;" style="ellipse;whiteSpace=wrap;html=1;" vertex="1" parent="1">
          <mxGeometry x="-360" y="-1080" width="90" height="55" as="geometry" />
        </mxCell>
        <mxCell id="xKHD5wUTyXtt5sotV_iL-40" value="Редактирование картины" style="ellipse;whiteSpace=wrap;html=1;" vertex="1" parent="1">
          <mxGeometry x="-360" y="-980" width="110" height="50" as="geometry" />
        </mxCell>
        <mxCell id="xKHD5wUTyXtt5sotV_iL-41" value="Изменить описание" style="ellipse;whiteSpace=wrap;html=1;" vertex="1" parent="1">
          <mxGeometry x="-488.25" y="-1045" width="120" height="40" as="geometry" />
        </mxCell>
        <mxCell id="xKHD5wUTyXtt5sotV_iL-42" value="Изменить её местоположение" style="ellipse;whiteSpace=wrap;html=1;" vertex="1" parent="1">
          <mxGeometry x="-598.25" y="-1000" width="110" height="60" as="geometry" />
        </mxCell>
        <mxCell id="xKHD5wUTyXtt5sotV_iL-44" value="&amp;lt;&amp;lt;extend&amp;gt;&amp;gt;" style="html=1;verticalAlign=bottom;labelBackgroundColor=none;endArrow=open;endFill=0;dashed=1;rounded=0;fontSize=12;startSize=8;endSize=8;curved=1;" edge="1" parent="1" source="xKHD5wUTyXtt5sotV_iL-41" target="xKHD5wUTyXtt5sotV_iL-40">
          <mxGeometry x="0.1649" y="-14" width="160" relative="1" as="geometry">
            <mxPoint x="-570" y="-670" as="sourcePoint" />
            <mxPoint x="-410" y="-670" as="targetPoint" />
            <mxPoint as="offset" />
          </mxGeometry>
        </mxCell>
        <mxCell id="xKHD5wUTyXtt5sotV_iL-45" value="&amp;lt;&amp;lt;extend&amp;gt;&amp;gt;" style="html=1;verticalAlign=bottom;labelBackgroundColor=none;endArrow=open;endFill=0;dashed=1;rounded=0;fontSize=12;startSize=8;endSize=8;curved=1;" edge="1" parent="1" source="xKHD5wUTyXtt5sotV_iL-42" target="xKHD5wUTyXtt5sotV_iL-40">
          <mxGeometry width="160" relative="1" as="geometry">
            <mxPoint x="-560" y="-550" as="sourcePoint" />
            <mxPoint x="-400" y="-550" as="targetPoint" />
          </mxGeometry>
        </mxCell>
        <mxCell id="xKHD5wUTyXtt5sotV_iL-47" value="Добавить выставку" style="ellipse;whiteSpace=wrap;html=1;" vertex="1" parent="1">
          <mxGeometry x="-360" y="-890" width="100" height="50" as="geometry" />
        </mxCell>
        <mxCell id="xKHD5wUTyXtt5sotV_iL-48" value="Добавить картины" style="ellipse;whiteSpace=wrap;html=1;" vertex="1" parent="1">
          <mxGeometry x="-570" y="-870" width="90" height="50" as="geometry" />
        </mxCell>
        <mxCell id="xKHD5wUTyXtt5sotV_iL-49" value="Добавить описание" style="ellipse;whiteSpace=wrap;html=1;" vertex="1" parent="1">
          <mxGeometry x="-507" y="-940" width="93.5" height="60" as="geometry" />
        </mxCell>
        <mxCell id="xKHD5wUTyXtt5sotV_iL-50" value="&amp;lt;&amp;lt;include&amp;gt;&amp;gt;" style="html=1;verticalAlign=bottom;labelBackgroundColor=none;endArrow=open;endFill=0;dashed=1;rounded=0;fontSize=12;startSize=8;endSize=8;curved=1;" edge="1" parent="1" source="xKHD5wUTyXtt5sotV_iL-47" target="xKHD5wUTyXtt5sotV_iL-48">
          <mxGeometry width="160" relative="1" as="geometry">
            <mxPoint x="-553" y="-530" as="sourcePoint" />
            <mxPoint x="-393" y="-530" as="targetPoint" />
          </mxGeometry>
        </mxCell>
        <mxCell id="xKHD5wUTyXtt5sotV_iL-51" value="&amp;lt;&amp;lt;include&amp;gt;&amp;gt;" style="html=1;verticalAlign=bottom;labelBackgroundColor=none;endArrow=open;endFill=0;dashed=1;rounded=0;fontSize=12;startSize=8;endSize=8;curved=1;" edge="1" parent="1" source="xKHD5wUTyXtt5sotV_iL-47" target="xKHD5wUTyXtt5sotV_iL-49">
          <mxGeometry width="160" relative="1" as="geometry">
            <mxPoint x="-513" y="-375" as="sourcePoint" />
            <mxPoint x="-447.23845277161445" y="-414.4279353756083" as="targetPoint" />
          </mxGeometry>
        </mxCell>
        <mxCell id="xKHD5wUTyXtt5sotV_iL-52" value="&lt;div&gt;Удаление выставки&lt;/div&gt;" style="ellipse;whiteSpace=wrap;html=1;" vertex="1" parent="1">
          <mxGeometry x="-340" y="-805" width="90" height="55" as="geometry" />
        </mxCell>
        <mxCell id="xKHD5wUTyXtt5sotV_iL-53" value="Редактирование выставки" style="ellipse;whiteSpace=wrap;html=1;" vertex="1" parent="1">
          <mxGeometry x="-540" y="-790" width="110" height="50" as="geometry" />
        </mxCell>
        <mxCell id="xKHD5wUTyXtt5sotV_iL-54" value="Изменить список картин" style="ellipse;whiteSpace=wrap;html=1;" vertex="1" parent="1">
          <mxGeometry x="-718.25" y="-860" width="120" height="40" as="geometry" />
        </mxCell>
        <mxCell id="xKHD5wUTyXtt5sotV_iL-55" value="Изменить время, место" style="ellipse;whiteSpace=wrap;html=1;" vertex="1" parent="1">
          <mxGeometry x="-800" y="-810" width="110" height="60" as="geometry" />
        </mxCell>
        <mxCell id="xKHD5wUTyXtt5sotV_iL-56" value="&amp;lt;&amp;lt;extend&amp;gt;&amp;gt;" style="html=1;verticalAlign=bottom;labelBackgroundColor=none;endArrow=open;endFill=0;dashed=1;rounded=0;fontSize=12;startSize=8;endSize=8;curved=1;" edge="1" parent="1" source="xKHD5wUTyXtt5sotV_iL-54" target="xKHD5wUTyXtt5sotV_iL-53">
          <mxGeometry x="0.1649" y="-14" width="160" relative="1" as="geometry">
            <mxPoint x="-433" y="-370" as="sourcePoint" />
            <mxPoint x="-273" y="-370" as="targetPoint" />
            <mxPoint as="offset" />
          </mxGeometry>
        </mxCell>
        <mxCell id="xKHD5wUTyXtt5sotV_iL-57" value="&amp;lt;&amp;lt;extend&amp;gt;&amp;gt;" style="html=1;verticalAlign=bottom;labelBackgroundColor=none;endArrow=open;endFill=0;dashed=1;rounded=0;fontSize=12;startSize=8;endSize=8;curved=1;" edge="1" parent="1" source="xKHD5wUTyXtt5sotV_iL-55" target="xKHD5wUTyXtt5sotV_iL-53">
          <mxGeometry width="160" relative="1" as="geometry">
            <mxPoint x="-423" y="-250" as="sourcePoint" />
            <mxPoint x="-263" y="-250" as="targetPoint" />
          </mxGeometry>
        </mxCell>
      </root>
    </mxGraphModel>
  </diagram>
  <diagram id="hmLmrmJkFIjYZ49wBuqj" name="Страница — 3">
    <mxGraphModel dx="1154" dy="548" grid="1" gridSize="10" guides="1" tooltips="1" connect="1" arrows="1" fold="1" page="1" pageScale="1" pageWidth="827" pageHeight="1169" math="0" shadow="0">
      <root>
        <mxCell id="0" />
        <mxCell id="1" parent="0" />
        <mxCell id="-r7EcVy4WiOU6oyLjzom-6" style="edgeStyle=none;curved=1;rounded=0;orthogonalLoop=1;jettySize=auto;html=1;fontSize=12;startSize=8;endSize=8;" parent="1" source="-r7EcVy4WiOU6oyLjzom-1" target="-r7EcVy4WiOU6oyLjzom-4" edge="1">
          <mxGeometry relative="1" as="geometry" />
        </mxCell>
        <mxCell id="-r7EcVy4WiOU6oyLjzom-10" value="" style="edgeStyle=none;curved=1;rounded=0;orthogonalLoop=1;jettySize=auto;html=1;fontSize=12;startSize=8;endSize=8;" parent="1" source="-r7EcVy4WiOU6oyLjzom-1" target="-r7EcVy4WiOU6oyLjzom-8" edge="1">
          <mxGeometry relative="1" as="geometry" />
        </mxCell>
        <mxCell id="-r7EcVy4WiOU6oyLjzom-17" value="" style="edgeStyle=none;curved=1;rounded=0;orthogonalLoop=1;jettySize=auto;html=1;fontSize=12;startSize=8;endSize=8;" parent="1" source="-r7EcVy4WiOU6oyLjzom-1" target="-r7EcVy4WiOU6oyLjzom-12" edge="1">
          <mxGeometry relative="1" as="geometry" />
        </mxCell>
        <mxCell id="-r7EcVy4WiOU6oyLjzom-26" style="edgeStyle=none;curved=1;rounded=0;orthogonalLoop=1;jettySize=auto;html=1;fontSize=12;startSize=8;endSize=8;" parent="1" source="-r7EcVy4WiOU6oyLjzom-1" target="-r7EcVy4WiOU6oyLjzom-24" edge="1">
          <mxGeometry relative="1" as="geometry" />
        </mxCell>
        <mxCell id="-r7EcVy4WiOU6oyLjzom-1" value="Пользователь" style="shape=umlActor;verticalLabelPosition=bottom;verticalAlign=top;html=1;" parent="1" vertex="1">
          <mxGeometry x="50" y="210" width="30" height="60" as="geometry" />
        </mxCell>
        <mxCell id="-r7EcVy4WiOU6oyLjzom-4" value="Регистрация" style="ellipse;whiteSpace=wrap;html=1;" parent="1" vertex="1">
          <mxGeometry x="20" y="30" width="90" height="40" as="geometry" />
        </mxCell>
        <mxCell id="-r7EcVy4WiOU6oyLjzom-5" value="Внесение данных в базу данных" style="ellipse;whiteSpace=wrap;html=1;" parent="1" vertex="1">
          <mxGeometry x="200" y="20" width="120" height="60" as="geometry" />
        </mxCell>
        <mxCell id="-r7EcVy4WiOU6oyLjzom-7" value="&amp;lt;&amp;lt;include&amp;gt;&amp;gt;" style="html=1;verticalAlign=bottom;labelBackgroundColor=none;endArrow=open;endFill=0;dashed=1;rounded=0;fontSize=12;startSize=8;endSize=8;curved=1;" parent="1" source="-r7EcVy4WiOU6oyLjzom-4" target="-r7EcVy4WiOU6oyLjzom-5" edge="1">
          <mxGeometry width="160" relative="1" as="geometry">
            <mxPoint x="290" y="170" as="sourcePoint" />
            <mxPoint x="450" y="170" as="targetPoint" />
          </mxGeometry>
        </mxCell>
        <mxCell id="-r7EcVy4WiOU6oyLjzom-8" value="Бронирование билетов на выставки" style="ellipse;whiteSpace=wrap;html=1;" parent="1" vertex="1">
          <mxGeometry x="80" y="100" width="140" height="70" as="geometry" />
        </mxCell>
        <mxCell id="-r7EcVy4WiOU6oyLjzom-11" value="&amp;lt;&amp;lt;include&amp;gt;&amp;gt;" style="html=1;verticalAlign=bottom;labelBackgroundColor=none;endArrow=open;endFill=0;dashed=1;rounded=0;fontSize=12;startSize=8;endSize=8;curved=1;" parent="1" source="-r7EcVy4WiOU6oyLjzom-8" target="-r7EcVy4WiOU6oyLjzom-5" edge="1">
          <mxGeometry x="-0.4386" y="9" width="160" relative="1" as="geometry">
            <mxPoint x="310" y="110" as="sourcePoint" />
            <mxPoint x="470" y="110" as="targetPoint" />
            <mxPoint as="offset" />
          </mxGeometry>
        </mxCell>
        <mxCell id="-r7EcVy4WiOU6oyLjzom-12" value="Просмотр выставок" style="ellipse;whiteSpace=wrap;html=1;" parent="1" vertex="1">
          <mxGeometry x="250" y="205" width="100" height="50" as="geometry" />
        </mxCell>
        <mxCell id="-r7EcVy4WiOU6oyLjzom-13" value="Фильтрация запросов" style="ellipse;whiteSpace=wrap;html=1;" parent="1" vertex="1">
          <mxGeometry x="260" y="85" width="90" height="55" as="geometry" />
        </mxCell>
        <mxCell id="-r7EcVy4WiOU6oyLjzom-16" value="" style="edgeStyle=none;curved=1;rounded=0;orthogonalLoop=1;jettySize=auto;html=1;fontSize=12;startSize=8;endSize=8;" parent="1" source="-r7EcVy4WiOU6oyLjzom-14" target="-r7EcVy4WiOU6oyLjzom-12" edge="1">
          <mxGeometry relative="1" as="geometry" />
        </mxCell>
        <mxCell id="-r7EcVy4WiOU6oyLjzom-22" value="" style="edgeStyle=none;curved=1;rounded=0;orthogonalLoop=1;jettySize=auto;html=1;fontSize=12;startSize=8;endSize=8;" parent="1" source="-r7EcVy4WiOU6oyLjzom-14" target="-r7EcVy4WiOU6oyLjzom-19" edge="1">
          <mxGeometry relative="1" as="geometry" />
        </mxCell>
        <mxCell id="-r7EcVy4WiOU6oyLjzom-27" style="edgeStyle=none;curved=1;rounded=0;orthogonalLoop=1;jettySize=auto;html=1;fontSize=12;startSize=8;endSize=8;" parent="1" source="-r7EcVy4WiOU6oyLjzom-14" target="-r7EcVy4WiOU6oyLjzom-24" edge="1">
          <mxGeometry relative="1" as="geometry" />
        </mxCell>
        <mxCell id="-r7EcVy4WiOU6oyLjzom-14" value="Менеджер" style="shape=umlActor;verticalLabelPosition=bottom;verticalAlign=top;html=1;" parent="1" vertex="1">
          <mxGeometry x="470" y="200" width="30" height="60" as="geometry" />
        </mxCell>
        <mxCell id="-r7EcVy4WiOU6oyLjzom-18" value="&amp;lt;&amp;lt;extend&amp;gt;&amp;gt;" style="html=1;verticalAlign=bottom;labelBackgroundColor=none;endArrow=open;endFill=0;dashed=1;rounded=0;fontSize=12;startSize=8;endSize=8;curved=1;" parent="1" source="-r7EcVy4WiOU6oyLjzom-13" target="-r7EcVy4WiOU6oyLjzom-12" edge="1">
          <mxGeometry width="160" relative="1" as="geometry">
            <mxPoint x="220" y="220" as="sourcePoint" />
            <mxPoint x="380" y="220" as="targetPoint" />
          </mxGeometry>
        </mxCell>
        <mxCell id="-r7EcVy4WiOU6oyLjzom-19" value="Просмотр статистики продаж" style="ellipse;whiteSpace=wrap;html=1;" parent="1" vertex="1">
          <mxGeometry x="370" y="125" width="120" height="50" as="geometry" />
        </mxCell>
        <mxCell id="-r7EcVy4WiOU6oyLjzom-20" value="Забронированные билеты" style="ellipse;whiteSpace=wrap;html=1;" parent="1" vertex="1">
          <mxGeometry x="425" y="20" width="120" height="60" as="geometry" />
        </mxCell>
        <mxCell id="-r7EcVy4WiOU6oyLjzom-21" value="&amp;lt;&amp;lt;include&amp;gt;&amp;gt;" style="html=1;verticalAlign=bottom;labelBackgroundColor=none;endArrow=open;endFill=0;dashed=1;rounded=0;fontSize=12;startSize=8;endSize=8;curved=1;" parent="1" source="-r7EcVy4WiOU6oyLjzom-5" target="-r7EcVy4WiOU6oyLjzom-20" edge="1">
          <mxGeometry width="160" relative="1" as="geometry">
            <mxPoint x="330" y="20" as="sourcePoint" />
            <mxPoint x="490" y="20" as="targetPoint" />
          </mxGeometry>
        </mxCell>
        <mxCell id="-r7EcVy4WiOU6oyLjzom-23" value="Use" style="endArrow=open;endSize=12;dashed=1;html=1;rounded=0;fontSize=12;curved=1;" parent="1" source="-r7EcVy4WiOU6oyLjzom-19" target="-r7EcVy4WiOU6oyLjzom-20" edge="1">
          <mxGeometry width="160" relative="1" as="geometry">
            <mxPoint x="510" y="140" as="sourcePoint" />
            <mxPoint x="670" y="140" as="targetPoint" />
          </mxGeometry>
        </mxCell>
        <mxCell id="-r7EcVy4WiOU6oyLjzom-24" value="Просмотр сведений о картинах" style="ellipse;whiteSpace=wrap;html=1;" parent="1" vertex="1">
          <mxGeometry x="310" y="290" width="110" height="50" as="geometry" />
        </mxCell>
        <mxCell id="-r7EcVy4WiOU6oyLjzom-28" value="Картины" style="ellipse;whiteSpace=wrap;html=1;" parent="1" vertex="1">
          <mxGeometry x="115" y="280" width="85" height="40" as="geometry" />
        </mxCell>
        <mxCell id="-r7EcVy4WiOU6oyLjzom-29" value="Use" style="endArrow=open;endSize=12;dashed=1;html=1;rounded=0;fontSize=12;curved=1;" parent="1" source="-r7EcVy4WiOU6oyLjzom-24" target="-r7EcVy4WiOU6oyLjzom-28" edge="1">
          <mxGeometry width="160" relative="1" as="geometry">
            <mxPoint x="453" y="136" as="sourcePoint" />
            <mxPoint x="479" y="89" as="targetPoint" />
          </mxGeometry>
        </mxCell>
        <mxCell id="wYffVC70-9U9XyrzOPai-1" value="&amp;lt;&amp;lt;extend&amp;gt;&amp;gt;" style="html=1;verticalAlign=bottom;labelBackgroundColor=none;endArrow=open;endFill=0;dashed=1;rounded=0;" edge="1" parent="1" source="-r7EcVy4WiOU6oyLjzom-8" target="-r7EcVy4WiOU6oyLjzom-12">
          <mxGeometry x="-0.2371" y="-23" width="160" relative="1" as="geometry">
            <mxPoint x="180" y="150" as="sourcePoint" />
            <mxPoint x="340" y="150" as="targetPoint" />
            <mxPoint as="offset" />
          </mxGeometry>
        </mxCell>
      </root>
    </mxGraphModel>
  </diagram>
</mxfile>
